<?xml version="1.0" standalone="no"?>
<!DOCTYPE svg PUBLIC "-//W3C//DTD SVG 20010904//EN"
 "http://www.w3.org/TR/2001/REC-SVG-20010904/DTD/svg10.dtd">
<svg version="1.0" xmlns="http://www.w3.org/2000/svg"
 width="40.000000pt" height="32.000000pt" viewBox="0 0 40.000000 32.000000"
 preserveAspectRatio="xMidYMid meet">

<g transform="translate(0.000000,32.000000) scale(0.100000,-0.100000)"
fill="#000000" stroke="none">
<path d="M0 300 c0 -19 7 -20 200 -20 193 0 200 1 200 20 0 19 -7 20 -200 20
-193 0 -200 -1 -200 -20z"/>
<path d="M0 160 c0 -19 7 -20 200 -20 193 0 200 1 200 20 0 19 -7 20 -200 20
-193 0 -200 -1 -200 -20z"/>
<path d="M0 20 c0 -19 7 -20 200 -20 193 0 200 1 200 20 0 19 -7 20 -200 20
-193 0 -200 -1 -200 -20z"/>
</g>
</svg>
